<svg xmlns="http://www.w3.org/2000/svg" viewBox="0 0 1280 320" width="1280" height="320" role="img" aria-label="free-webui — royalty-free chat UI for self-hosted LLMs">
  <defs>
    <linearGradient id="bg" x1="0" y1="0" x2="1" y2="1">
      <stop offset="0" stop-color="#05060f"/>
      <stop offset="0.5" stop-color="#0b1020"/>
      <stop offset="1" stop-color="#1e1b4b"/>
    </linearGradient>
    <linearGradient id="ring" x1="0" y1="0" x2="1" y2="0">
      <stop offset="0" stop-color="#22d3ee"/>
      <stop offset="0.5" stop-color="#818cf8"/>
      <stop offset="1" stop-color="#a78bfa"/>
    </linearGradient>
    <radialGradient id="spot" cx="0.18" cy="0.5" r="0.6">
      <stop offset="0" stop-color="#22d3ee" stop-opacity="0.35"/>
      <stop offset="1" stop-color="#22d3ee" stop-opacity="0"/>
    </radialGradient>
    <radialGradient id="spot2" cx="0.82" cy="0.5" r="0.6">
      <stop offset="0" stop-color="#a78bfa" stop-opacity="0.35"/>
      <stop offset="1" stop-color="#a78bfa" stop-opacity="0"/>
    </radialGradient>
    <pattern id="grid" width="40" height="40" patternUnits="userSpaceOnUse">
      <path d="M40 0H0V40" fill="none" stroke="#22d3ee" stroke-opacity="0.06" stroke-width="1"/>
    </pattern>
    <filter id="glow" x="-50%" y="-50%" width="200%" height="200%">
      <feGaussianBlur stdDeviation="3" result="b"/>
      <feMerge><feMergeNode in="b"/><feMergeNode in="SourceGraphic"/></feMerge>
    </filter>
  </defs>

  <rect width="1280" height="320" fill="url(#bg)"/>
  <rect width="1280" height="320" fill="url(#grid)"/>
  <rect width="1280" height="320" fill="url(#spot)"/>
  <rect width="1280" height="320" fill="url(#spot2)"/>

  <!-- mini logo on the left -->
  <g transform="translate(80 80)" filter="url(#glow)">
    <path d="M0 30 h130 a24 24 0 0 1 24 24 v60 a24 24 0 0 1 -24 24 h-40 l-26 26 v-26 h-64 a24 24 0 0 1 -24 -24 v-60 a24 24 0 0 1 24 -24 z"
          fill="none" stroke="url(#ring)" stroke-width="5" stroke-linejoin="round"/>
    <text x="77" y="106" text-anchor="middle" font-family="ui-monospace, monospace" font-weight="700" font-size="95" fill="url(#ring)">f</text>
  </g>

  <!-- wordmark + tagline -->
  <g transform="translate(290 0)">
    <text x="0" y="140" font-family="ui-sans-serif, system-ui, -apple-system, Segoe UI, Roboto, sans-serif" font-weight="800" font-size="88" fill="#e2e8f0" letter-spacing="-2">
      free-<tspan fill="url(#ring)">webui</tspan>
    </text>
    <text x="4" y="180" font-family="ui-monospace, SFMono-Regular, Menlo, monospace" font-size="20" fill="#94a3b8" letter-spacing="0.5">
      a royalty-free, MIT, clean-room
    </text>
    <text x="4" y="206" font-family="ui-monospace, SFMono-Regular, Menlo, monospace" font-size="20" fill="#94a3b8" letter-spacing="0.5">
      chat UI for self-hosted LLMs
    </text>

    <g transform="translate(4 232)" font-family="ui-monospace, monospace" font-size="14" fill="#64748b">
      <g>
        <rect x="0" y="0" width="92" height="26" rx="13" fill="#0f172a" stroke="#1e293b"/>
        <text x="46" y="17" text-anchor="middle">SvelteKit</text>
      </g>
      <g transform="translate(100 0)">
        <rect x="0" y="0" width="92" height="26" rx="13" fill="#0f172a" stroke="#1e293b"/>
        <text x="46" y="17" text-anchor="middle">FastAPI</text>
      </g>
      <g transform="translate(200 0)">
        <rect x="0" y="0" width="92" height="26" rx="13" fill="#0f172a" stroke="#1e293b"/>
        <text x="46" y="17" text-anchor="middle">Ollama</text>
      </g>
      <g transform="translate(300 0)">
        <rect x="0" y="0" width="120" height="26" rx="13" fill="#0f172a" stroke="#1e293b"/>
        <text x="60" y="17" text-anchor="middle">OpenAI-compat</text>
      </g>
      <g transform="translate(428 0)">
        <rect x="0" y="0" width="60" height="26" rx="13" fill="#0f172a" stroke="#1e293b"/>
        <text x="30" y="17" text-anchor="middle">MIT</text>
      </g>
    </g>
  </g>

  <!-- decorative right-side chat lines -->
  <g transform="translate(900 60)" font-family="ui-monospace, monospace" font-size="13" fill="#64748b">
    <rect x="0" y="0" width="300" height="200" rx="14" fill="#0f172a" fill-opacity="0.65" stroke="#1e293b"/>
    <g transform="translate(16 28)">
      <text fill="#22d3ee">user</text>
      <text y="20" fill="#cbd5e1">explain attention in one line</text>
      <text y="60" fill="#a78bfa">assistant</text>
      <text y="80" fill="#cbd5e1">tokens vote on tokens, weighted</text>
      <text y="96" fill="#cbd5e1">by how relevant they are to each</text>
      <text y="112" fill="#cbd5e1">other<tspan fill="#22d3ee">▍</tspan></text>
    </g>
  </g>
</svg>
